<svg id="mermaid-svg" width="100%" xmlns="http://www.w3.org/2000/svg" style="max-width: 3590px;" viewBox="0 -64 3590 796.4000244140625" role="graphics-document document" aria-roledescription="timeline" xmlns:xlink="http://www.w3.org/1999/xlink"><style xmlns="http://www.w3.org/1999/xhtml">@import url("https://cdnjs.cloudflare.com/ajax/libs/font-awesome/6.7.1/css/all.min.css");</style><style>#mermaid-svg{font-family:"trebuchet ms",verdana,arial,sans-serif;font-size:16px;fill:#333;}#mermaid-svg .error-icon{fill:#552222;}#mermaid-svg .error-text{fill:#552222;stroke:#552222;}#mermaid-svg .edge-thickness-normal{stroke-width:1px;}#mermaid-svg .edge-thickness-thick{stroke-width:3.5px;}#mermaid-svg .edge-pattern-solid{stroke-dasharray:0;}#mermaid-svg .edge-thickness-invisible{stroke-width:0;fill:none;}#mermaid-svg .edge-pattern-dashed{stroke-dasharray:3;}#mermaid-svg .edge-pattern-dotted{stroke-dasharray:2;}#mermaid-svg .marker{fill:#333333;stroke:#333333;}#mermaid-svg .marker.cross{stroke:#333333;}#mermaid-svg svg{font-family:"trebuchet ms",verdana,arial,sans-serif;font-size:16px;}#mermaid-svg p{margin:0;}#mermaid-svg .edge{stroke-width:3;}#mermaid-svg .section--1 rect,#mermaid-svg .section--1 path,#mermaid-svg .section--1 circle,#mermaid-svg .section--1 path{fill:#6a8caf;}#mermaid-svg .section--1 text{fill:#ffffff;}#mermaid-svg .node-icon--1{font-size:40px;color:#ffffff;}#mermaid-svg .section-edge--1{stroke:#6a8caf;}#mermaid-svg .edge-depth--1{stroke-width:17;}#mermaid-svg .section--1 line{stroke:hsl(60, 100%, 86.2745098039%);stroke-width:3;}#mermaid-svg .lineWrapper line{stroke:#ffffff;}#mermaid-svg .disabled,#mermaid-svg .disabled circle,#mermaid-svg .disabled text{fill:lightgray;}#mermaid-svg .disabled text{fill:#efefef;}#mermaid-svg .section-0 rect,#mermaid-svg .section-0 path,#mermaid-svg .section-0 circle,#mermaid-svg .section-0 path{fill:#b9d6e8;}#mermaid-svg .section-0 text{fill:#1a1a1a;}#mermaid-svg .node-icon-0{font-size:40px;color:#1a1a1a;}#mermaid-svg .section-edge-0{stroke:#b9d6e8;}#mermaid-svg .edge-depth-0{stroke-width:14;}#mermaid-svg .section-0 line{stroke:hsl(240, 100%, 83.5294117647%);stroke-width:3;}#mermaid-svg .lineWrapper line{stroke:#1a1a1a;}#mermaid-svg .disabled,#mermaid-svg .disabled circle,#mermaid-svg .disabled text{fill:lightgray;}#mermaid-svg .disabled text{fill:#efefef;}#mermaid-svg .section-1 rect,#mermaid-svg .section-1 path,#mermaid-svg .section-1 circle,#mermaid-svg .section-1 path{fill:#f7c873;}#mermaid-svg .section-1 text{fill:#1a1a1a;}#mermaid-svg .node-icon-1{font-size:40px;color:#1a1a1a;}#mermaid-svg .section-edge-1{stroke:#f7c873;}#mermaid-svg .edge-depth-1{stroke-width:11;}#mermaid-svg .section-1 line{stroke:hsl(260, 100%, 86.2745098039%);stroke-width:3;}#mermaid-svg .lineWrapper line{stroke:#1a1a1a;}#mermaid-svg .disabled,#mermaid-svg .disabled circle,#mermaid-svg .disabled text{fill:lightgray;}#mermaid-svg .disabled text{fill:#efefef;}#mermaid-svg .section-2 rect,#mermaid-svg .section-2 path,#mermaid-svg .section-2 circle,#mermaid-svg .section-2 path{fill:#e57373;}#mermaid-svg .section-2 text{fill:#ffffff;}#mermaid-svg .node-icon-2{font-size:40px;color:#ffffff;}#mermaid-svg .section-edge-2{stroke:#e57373;}#mermaid-svg .edge-depth-2{stroke-width:8;}#mermaid-svg .section-2 line{stroke:hsl(90, 100%, 86.2745098039%);stroke-width:3;}#mermaid-svg .lineWrapper line{stroke:#ffffff;}#mermaid-svg .disabled,#mermaid-svg .disabled circle,#mermaid-svg .disabled text{fill:lightgray;}#mermaid-svg .disabled text{fill:#efefef;}#mermaid-svg .section-3 rect,#mermaid-svg .section-3 path,#mermaid-svg .section-3 circle,#mermaid-svg .section-3 path{fill:hsl(300, 100%, 76.2745098039%);}#mermaid-svg .section-3 text{fill:black;}#mermaid-svg .node-icon-3{font-size:40px;color:black;}#mermaid-svg .section-edge-3{stroke:hsl(300, 100%, 76.2745098039%);}#mermaid-svg .edge-depth-3{stroke-width:5;}#mermaid-svg .section-3 line{stroke:hsl(120, 100%, 86.2745098039%);stroke-width:3;}#mermaid-svg .lineWrapper line{stroke:black;}#mermaid-svg .disabled,#mermaid-svg .disabled circle,#mermaid-svg .disabled text{fill:lightgray;}#mermaid-svg .disabled text{fill:#efefef;}#mermaid-svg .section-4 rect,#mermaid-svg .section-4 path,#mermaid-svg .section-4 circle,#mermaid-svg .section-4 path{fill:hsl(330, 100%, 76.2745098039%);}#mermaid-svg .section-4 text{fill:black;}#mermaid-svg .node-icon-4{font-size:40px;color:black;}#mermaid-svg .section-edge-4{stroke:hsl(330, 100%, 76.2745098039%);}#mermaid-svg .edge-depth-4{stroke-width:2;}#mermaid-svg .section-4 line{stroke:hsl(150, 100%, 86.2745098039%);stroke-width:3;}#mermaid-svg .lineWrapper line{stroke:black;}#mermaid-svg .disabled,#mermaid-svg .disabled circle,#mermaid-svg .disabled text{fill:lightgray;}#mermaid-svg .disabled text{fill:#efefef;}#mermaid-svg .section-5 rect,#mermaid-svg .section-5 path,#mermaid-svg .section-5 circle,#mermaid-svg .section-5 path{fill:hsl(0, 100%, 76.2745098039%);}#mermaid-svg .section-5 text{fill:black;}#mermaid-svg .node-icon-5{font-size:40px;color:black;}#mermaid-svg .section-edge-5{stroke:hsl(0, 100%, 76.2745098039%);}#mermaid-svg .edge-depth-5{stroke-width:-1;}#mermaid-svg .section-5 line{stroke:hsl(180, 100%, 86.2745098039%);stroke-width:3;}#mermaid-svg .lineWrapper line{stroke:black;}#mermaid-svg .disabled,#mermaid-svg .disabled circle,#mermaid-svg .disabled text{fill:lightgray;}#mermaid-svg .disabled text{fill:#efefef;}#mermaid-svg .section-6 rect,#mermaid-svg .section-6 path,#mermaid-svg .section-6 circle,#mermaid-svg .section-6 path{fill:hsl(30, 100%, 76.2745098039%);}#mermaid-svg .section-6 text{fill:black;}#mermaid-svg .node-icon-6{font-size:40px;color:black;}#mermaid-svg .section-edge-6{stroke:hsl(30, 100%, 76.2745098039%);}#mermaid-svg .edge-depth-6{stroke-width:-4;}#mermaid-svg .section-6 line{stroke:hsl(210, 100%, 86.2745098039%);stroke-width:3;}#mermaid-svg .lineWrapper line{stroke:black;}#mermaid-svg .disabled,#mermaid-svg .disabled circle,#mermaid-svg .disabled text{fill:lightgray;}#mermaid-svg .disabled text{fill:#efefef;}#mermaid-svg .section-7 rect,#mermaid-svg .section-7 path,#mermaid-svg .section-7 circle,#mermaid-svg .section-7 path{fill:hsl(90, 100%, 76.2745098039%);}#mermaid-svg .section-7 text{fill:black;}#mermaid-svg .node-icon-7{font-size:40px;color:black;}#mermaid-svg .section-edge-7{stroke:hsl(90, 100%, 76.2745098039%);}#mermaid-svg .edge-depth-7{stroke-width:-7;}#mermaid-svg .section-7 line{stroke:hsl(270, 100%, 86.2745098039%);stroke-width:3;}#mermaid-svg .lineWrapper line{stroke:black;}#mermaid-svg .disabled,#mermaid-svg .disabled circle,#mermaid-svg .disabled text{fill:lightgray;}#mermaid-svg .disabled text{fill:#efefef;}#mermaid-svg .section-8 rect,#mermaid-svg .section-8 path,#mermaid-svg .section-8 circle,#mermaid-svg .section-8 path{fill:hsl(150, 100%, 76.2745098039%);}#mermaid-svg .section-8 text{fill:black;}#mermaid-svg .node-icon-8{font-size:40px;color:black;}#mermaid-svg .section-edge-8{stroke:hsl(150, 100%, 76.2745098039%);}#mermaid-svg .edge-depth-8{stroke-width:-10;}#mermaid-svg .section-8 line{stroke:hsl(330, 100%, 86.2745098039%);stroke-width:3;}#mermaid-svg .lineWrapper line{stroke:black;}#mermaid-svg .disabled,#mermaid-svg .disabled circle,#mermaid-svg .disabled text{fill:lightgray;}#mermaid-svg .disabled text{fill:#efefef;}#mermaid-svg .section-9 rect,#mermaid-svg .section-9 path,#mermaid-svg .section-9 circle,#mermaid-svg .section-9 path{fill:hsl(180, 100%, 76.2745098039%);}#mermaid-svg .section-9 text{fill:black;}#mermaid-svg .node-icon-9{font-size:40px;color:black;}#mermaid-svg .section-edge-9{stroke:hsl(180, 100%, 76.2745098039%);}#mermaid-svg .edge-depth-9{stroke-width:-13;}#mermaid-svg .section-9 line{stroke:hsl(0, 100%, 86.2745098039%);stroke-width:3;}#mermaid-svg .lineWrapper line{stroke:black;}#mermaid-svg .disabled,#mermaid-svg .disabled circle,#mermaid-svg .disabled text{fill:lightgray;}#mermaid-svg .disabled text{fill:#efefef;}#mermaid-svg .section-10 rect,#mermaid-svg .section-10 path,#mermaid-svg .section-10 circle,#mermaid-svg .section-10 path{fill:hsl(210, 100%, 76.2745098039%);}#mermaid-svg .section-10 text{fill:black;}#mermaid-svg .node-icon-10{font-size:40px;color:black;}#mermaid-svg .section-edge-10{stroke:hsl(210, 100%, 76.2745098039%);}#mermaid-svg .edge-depth-10{stroke-width:-16;}#mermaid-svg .section-10 line{stroke:hsl(30, 100%, 86.2745098039%);stroke-width:3;}#mermaid-svg .lineWrapper line{stroke:black;}#mermaid-svg .disabled,#mermaid-svg .disabled circle,#mermaid-svg .disabled text{fill:lightgray;}#mermaid-svg .disabled text{fill:#efefef;}#mermaid-svg .section-root rect,#mermaid-svg .section-root path,#mermaid-svg .section-root circle{fill:hsl(240, 100%, 46.2745098039%);}#mermaid-svg .section-root text{fill:#ffffff;}#mermaid-svg .icon-container{height:100%;display:flex;justify-content:center;align-items:center;}#mermaid-svg .edge{fill:none;}#mermaid-svg .eventWrapper{filter:brightness(120%);}#mermaid-svg :root{--mermaid-font-family:"trebuchet ms",verdana,arial,sans-serif;}</style><g></g><g></g><defs><marker id="arrowhead" refX="5" refY="2" markerWidth="6" markerHeight="4" orient="auto"><path d="M 0,0 V 4 L6,2 Z"></path></marker></defs><g transform="translate(100, 50)"><g class="timeline-node section--1"><g><path id="node-undefined" class="node-bkg node-undefined" d="M0 97.99999694824218 v-92.99999694824218 q0,-5 5,-5 h580 q5,0 5,5 v97.99999694824218 H0 Z"></path><line class="node-line--1" x1="0" y1="102.99999694824218" x2="590" y2="102.99999694824218"></line></g><g transform="translate(295, 10)"><text dy="1em" alignment-baseline="middle" dominant-baseline="middle" text-anchor="middle"><tspan x="0" dy="1em">Disease   Overview   and   Gut   Brain   Axis</tspan></text></g></g></g><g class="taskWrapper" transform="translate(100, 202.9999969482422)"><g class="timeline-node section--1"><g><path id="node-undefined" class="node-bkg node-undefined" d="M0 62.8 v-57.8 q0,-5 5,-5 h180 q5,0 5,5 v62.8 H0 Z"></path><line class="node-line--1" x1="0" y1="67.8" x2="190" y2="67.8"></line></g><g transform="translate(95, 10)"><text dy="1em" alignment-baseline="middle" dominant-baseline="middle" text-anchor="middle"><tspan x="0" dy="1em">2000s</tspan></text></g></g></g><g class="lineWrapper"><line x1="195" y1="270.7999969482422" x2="195" y2="682.3999969482422" stroke-width="2" stroke="black" marker-end="url(#arrowhead)" stroke-dasharray="5,5"></line></g><g class="eventWrapper" transform="translate(100, 402.9999969482422)"><g class="timeline-node section--1"><g><path id="node-undefined" class="node-bkg node-undefined" d="M0 148.39999084472657 v-143.39999084472657 q0,-5 5,-5 h180 q5,0 5,5 v148.39999084472657 H0 Z"></path><line class="node-line--1" x1="0" y1="153.39999084472657" x2="190" y2="153.39999084472657"></line></g><g transform="translate(95, 10)"><text dy="1em" alignment-baseline="middle" dominant-baseline="middle" text-anchor="middle"><tspan x="0" dy="1em">Neurodegenerative</tspan><tspan x="0" dy="1.1em">diseases   involve</tspan><tspan x="0" dy="1.1em">protein   aggregation</tspan><tspan x="0" dy="1.1em">neuronal   damage</tspan><tspan x="0" dy="1.1em">and</tspan><tspan x="0" dy="1.1em">neuroinflammation</tspan><tspan x="0" dy="1.1em">%%cScale0%%</tspan></text></g></g></g><g class="taskWrapper" transform="translate(300, 202.9999969482422)"><g class="timeline-node section--1"><g><path id="node-undefined" class="node-bkg node-undefined" d="M0 62.8 v-57.8 q0,-5 5,-5 h180 q5,0 5,5 v62.8 H0 Z"></path><line class="node-line--1" x1="0" y1="67.8" x2="190" y2="67.8"></line></g><g transform="translate(95, 10)"><text dy="1em" alignment-baseline="middle" dominant-baseline="middle" text-anchor="middle"><tspan x="0" dy="1em">2000s</tspan></text></g></g></g><g class="lineWrapper"><line x1="395" y1="270.7999969482422" x2="395" y2="682.3999969482422" stroke-width="2" stroke="black" marker-end="url(#arrowhead)" stroke-dasharray="5,5"></line></g><g class="eventWrapper" transform="translate(300, 402.9999969482422)"><g class="timeline-node section--1"><g><path id="node-undefined" class="node-bkg node-undefined" d="M0 130.79999237060548 v-125.79999237060548 q0,-5 5,-5 h180 q5,0 5,5 v130.79999237060548 H0 Z"></path><line class="node-line--1" x1="0" y1="135.79999237060548" x2="190" y2="135.79999237060548"></line></g><g transform="translate(95, 10)"><text dy="1em" alignment-baseline="middle" dominant-baseline="middle" text-anchor="middle"><tspan x="0" dy="1em">Gut   microbiota</tspan><tspan x="0" dy="1.1em">interacts   with   the</tspan><tspan x="0" dy="1.1em">central   nervous</tspan><tspan x="0" dy="1.1em">system   via   the   gut</tspan><tspan x="0" dy="1.1em">brain   axis</tspan><tspan x="0" dy="1.1em">%%cScale0%%</tspan></text></g></g></g><g class="taskWrapper" transform="translate(500, 202.9999969482422)"><g class="timeline-node section--1"><g><path id="node-undefined" class="node-bkg node-undefined" d="M0 62.8 v-57.8 q0,-5 5,-5 h180 q5,0 5,5 v62.8 H0 Z"></path><line class="node-line--1" x1="0" y1="67.8" x2="190" y2="67.8"></line></g><g transform="translate(95, 10)"><text dy="1em" alignment-baseline="middle" dominant-baseline="middle" text-anchor="middle"><tspan x="0" dy="1em">2010s</tspan></text></g></g></g><g class="lineWrapper"><line x1="595" y1="270.7999969482422" x2="595" y2="682.3999969482422" stroke-width="2" stroke="black" marker-end="url(#arrowhead)" stroke-dasharray="5,5"></line></g><g class="eventWrapper" transform="translate(500, 402.9999969482422)"><g class="timeline-node section--1"><g><path id="node-undefined" class="node-bkg node-undefined" d="M0 183.60000305175782 v-178.60000305175782 q0,-5 5,-5 h180 q5,0 5,5 v183.60000305175782 H0 Z"></path><line class="node-line--1" x1="0" y1="188.60000305175782" x2="190" y2="188.60000305175782"></line></g><g transform="translate(95, 10)"><text dy="1em" alignment-baseline="middle" dominant-baseline="middle" text-anchor="middle"><tspan x="0" dy="1em">Dysbiosis   in   gut</tspan><tspan x="0" dy="1.1em">microbiota   observed</tspan><tspan x="0" dy="1.1em">in   Alzheimer   and</tspan><tspan x="0" dy="1.1em">Parkinson   with</tspan><tspan x="0" dy="1.1em">decreased   beneficial</tspan><tspan x="0" dy="1.1em">bacteria   and</tspan><tspan x="0" dy="1.1em">increased</tspan><tspan x="0" dy="1.1em">proinflammatory</tspan><tspan x="0" dy="1.1em">taxa    %%cScale0%%</tspan></text></g></g></g><g transform="translate(700, 50)"><g class="timeline-node section-0"><g><path id="node-undefined" class="node-bkg node-undefined" d="M0 97.99999694824218 v-92.99999694824218 q0,-5 5,-5 h580 q5,0 5,5 v97.99999694824218 H0 Z"></path><line class="node-line-0" x1="0" y1="102.99999694824218" x2="590" y2="102.99999694824218"></line></g><g transform="translate(295, 10)"><text dy="1em" alignment-baseline="middle" dominant-baseline="middle" text-anchor="middle"><tspan x="0" dy="1em">Multi   Omics   Approaches   and   Data   Integration</tspan></text></g></g></g><g class="taskWrapper" transform="translate(700, 202.9999969482422)"><g class="timeline-node section-0"><g><path id="node-undefined" class="node-bkg node-undefined" d="M0 62.8 v-57.8 q0,-5 5,-5 h180 q5,0 5,5 v62.8 H0 Z"></path><line class="node-line-0" x1="0" y1="67.8" x2="190" y2="67.8"></line></g><g transform="translate(95, 10)"><text dy="1em" alignment-baseline="middle" dominant-baseline="middle" text-anchor="middle"><tspan x="0" dy="1em">2010s</tspan></text></g></g></g><g class="lineWrapper"><line x1="795" y1="270.7999969482422" x2="795" y2="682.3999969482422" stroke-width="2" stroke="black" marker-end="url(#arrowhead)" stroke-dasharray="5,5"></line></g><g class="eventWrapper" transform="translate(700, 402.9999969482422)"><g class="timeline-node section-0"><g><path id="node-undefined" class="node-bkg node-undefined" d="M0 148.39999084472657 v-143.39999084472657 q0,-5 5,-5 h180 q5,0 5,5 v148.39999084472657 H0 Z"></path><line class="node-line-0" x1="0" y1="153.39999084472657" x2="190" y2="153.39999084472657"></line></g><g transform="translate(95, 10)"><text dy="1em" alignment-baseline="middle" dominant-baseline="middle" text-anchor="middle"><tspan x="0" dy="1em">Multi   omics</tspan><tspan x="0" dy="1.1em">platforms</tspan><tspan x="0" dy="1.1em">characterize   brain</tspan><tspan x="0" dy="1.1em">and   gut   molecular</tspan><tspan x="0" dy="1.1em">profiles   and   identify</tspan><tspan x="0" dy="1.1em">biomarkers</tspan><tspan x="0" dy="1.1em">%%cScale1%%</tspan></text></g></g></g><g class="taskWrapper" transform="translate(900, 202.9999969482422)"><g class="timeline-node section-0"><g><path id="node-undefined" class="node-bkg node-undefined" d="M0 62.8 v-57.8 q0,-5 5,-5 h180 q5,0 5,5 v62.8 H0 Z"></path><line class="node-line-0" x1="0" y1="67.8" x2="190" y2="67.8"></line></g><g transform="translate(95, 10)"><text dy="1em" alignment-baseline="middle" dominant-baseline="middle" text-anchor="middle"><tspan x="0" dy="1em">2010s</tspan></text></g></g></g><g class="lineWrapper"><line x1="995" y1="270.7999969482422" x2="995" y2="682.3999969482422" stroke-width="2" stroke="black" marker-end="url(#arrowhead)" stroke-dasharray="5,5"></line></g><g class="eventWrapper" transform="translate(900, 402.9999969482422)"><g class="timeline-node section-0"><g><path id="node-undefined" class="node-bkg node-undefined" d="M0 148.39999084472657 v-143.39999084472657 q0,-5 5,-5 h180 q5,0 5,5 v148.39999084472657 H0 Z"></path><line class="node-line-0" x1="0" y1="153.39999084472657" x2="190" y2="153.39999084472657"></line></g><g transform="translate(95, 10)"><text dy="1em" alignment-baseline="middle" dominant-baseline="middle" text-anchor="middle"><tspan x="0" dy="1em">Integration   of   large</tspan><tspan x="0" dy="1.1em">datasets   using</tspan><tspan x="0" dy="1.1em">computational</tspan><tspan x="0" dy="1.1em">network   biology   and</tspan><tspan x="0" dy="1.1em">artificial</tspan><tspan x="0" dy="1.1em">intelligence</tspan><tspan x="0" dy="1.1em">%%cScale1%%</tspan></text></g></g></g><g class="taskWrapper" transform="translate(1100, 202.9999969482422)"><g class="timeline-node section-0"><g><path id="node-undefined" class="node-bkg node-undefined" d="M0 62.8 v-57.8 q0,-5 5,-5 h180 q5,0 5,5 v62.8 H0 Z"></path><line class="node-line-0" x1="0" y1="67.8" x2="190" y2="67.8"></line></g><g transform="translate(95, 10)"><text dy="1em" alignment-baseline="middle" dominant-baseline="middle" text-anchor="middle"><tspan x="0" dy="1em">2010s</tspan></text></g></g></g><g class="lineWrapper"><line x1="1195" y1="270.7999969482422" x2="1195" y2="682.3999969482422" stroke-width="2" stroke="black" marker-end="url(#arrowhead)" stroke-dasharray="5,5"></line></g><g class="eventWrapper" transform="translate(1100, 402.9999969482422)"><g class="timeline-node section-0"><g><path id="node-undefined" class="node-bkg node-undefined" d="M0 148.39999084472657 v-143.39999084472657 q0,-5 5,-5 h180 q5,0 5,5 v148.39999084472657 H0 Z"></path><line class="node-line-0" x1="0" y1="153.39999084472657" x2="190" y2="153.39999084472657"></line></g><g transform="translate(95, 10)"><text dy="1em" alignment-baseline="middle" dominant-baseline="middle" text-anchor="middle"><tspan x="0" dy="1em">Development   of</tspan><tspan x="0" dy="1.1em">omics   databases   and</tspan><tspan x="0" dy="1.1em">integration   tools   for</tspan><tspan x="0" dy="1.1em">genomics</tspan><tspan x="0" dy="1.1em">proteomics   and</tspan><tspan x="0" dy="1.1em">metabolomics</tspan><tspan x="0" dy="1.1em">%%cScale1%%</tspan></text></g></g></g><g transform="translate(1300, 50)"><g class="timeline-node section-1"><g><path id="node-undefined" class="node-bkg node-undefined" d="M0 97.99999694824218 v-92.99999694824218 q0,-5 5,-5 h1180 q5,0 5,5 v97.99999694824218 H0 Z"></path><line class="node-line-1" x1="0" y1="102.99999694824218" x2="1190" y2="102.99999694824218"></line></g><g transform="translate(595, 10)"><text dy="1em" alignment-baseline="middle" dominant-baseline="middle" text-anchor="middle"><tspan x="0" dy="1em">Key   Discoveries   in   Alzheimer   and   Parkinson</tspan></text></g></g></g><g class="taskWrapper" transform="translate(1300, 202.9999969482422)"><g class="timeline-node section-1"><g><path id="node-undefined" class="node-bkg node-undefined" d="M0 62.8 v-57.8 q0,-5 5,-5 h180 q5,0 5,5 v62.8 H0 Z"></path><line class="node-line-1" x1="0" y1="67.8" x2="190" y2="67.8"></line></g><g transform="translate(95, 10)"><text dy="1em" alignment-baseline="middle" dominant-baseline="middle" text-anchor="middle"><tspan x="0" dy="1em">2015</tspan></text></g></g></g><g class="lineWrapper"><line x1="1395" y1="270.7999969482422" x2="1395" y2="682.3999969482422" stroke-width="2" stroke="black" marker-end="url(#arrowhead)" stroke-dasharray="5,5"></line></g><g class="eventWrapper" transform="translate(1300, 402.9999969482422)"><g class="timeline-node section-1"><g><path id="node-undefined" class="node-bkg node-undefined" d="M0 130.79999237060548 v-125.79999237060548 q0,-5 5,-5 h180 q5,0 5,5 v130.79999237060548 H0 Z"></path><line class="node-line-1" x1="0" y1="135.79999237060548" x2="190" y2="135.79999237060548"></line></g><g transform="translate(95, 10)"><text dy="1em" alignment-baseline="middle" dominant-baseline="middle" text-anchor="middle"><tspan x="0" dy="1em">Reduced   microbial</tspan><tspan x="0" dy="1.1em">diversity   and</tspan><tspan x="0" dy="1.1em">dysbiotic   signatures</tspan><tspan x="0" dy="1.1em">detected   in   early</tspan><tspan x="0" dy="1.1em">Alzheimer</tspan><tspan x="0" dy="1.1em">%%cScale2%%</tspan></text></g></g></g><g class="taskWrapper" transform="translate(1500, 202.9999969482422)"><g class="timeline-node section-1"><g><path id="node-undefined" class="node-bkg node-undefined" d="M0 62.8 v-57.8 q0,-5 5,-5 h180 q5,0 5,5 v62.8 H0 Z"></path><line class="node-line-1" x1="0" y1="67.8" x2="190" y2="67.8"></line></g><g transform="translate(95, 10)"><text dy="1em" alignment-baseline="middle" dominant-baseline="middle" text-anchor="middle"><tspan x="0" dy="1em">2017</tspan></text></g></g></g><g class="lineWrapper"><line x1="1595" y1="270.7999969482422" x2="1595" y2="682.3999969482422" stroke-width="2" stroke="black" marker-end="url(#arrowhead)" stroke-dasharray="5,5"></line></g><g class="eventWrapper" transform="translate(1500, 402.9999969482422)"><g class="timeline-node section-1"><g><path id="node-undefined" class="node-bkg node-undefined" d="M0 130.79999237060548 v-125.79999237060548 q0,-5 5,-5 h180 q5,0 5,5 v130.79999237060548 H0 Z"></path><line class="node-line-1" x1="0" y1="135.79999237060548" x2="190" y2="135.79999237060548"></line></g><g transform="translate(95, 10)"><text dy="1em" alignment-baseline="middle" dominant-baseline="middle" text-anchor="middle"><tspan x="0" dy="1em">Multi   omics</tspan><tspan x="0" dy="1.1em">identifies   high</tspan><tspan x="0" dy="1.1em">confidence</tspan><tspan x="0" dy="1.1em">Alzheimer   risk   genes</tspan><tspan x="0" dy="1.1em">and   therapeutic</tspan><tspan x="0" dy="1.1em">targets    %%cScale2%%</tspan></text></g></g></g><g class="taskWrapper" transform="translate(1700, 202.9999969482422)"><g class="timeline-node section-1"><g><path id="node-undefined" class="node-bkg node-undefined" d="M0 62.8 v-57.8 q0,-5 5,-5 h180 q5,0 5,5 v62.8 H0 Z"></path><line class="node-line-1" x1="0" y1="67.8" x2="190" y2="67.8"></line></g><g transform="translate(95, 10)"><text dy="1em" alignment-baseline="middle" dominant-baseline="middle" text-anchor="middle"><tspan x="0" dy="1em">2018</tspan></text></g></g></g><g class="lineWrapper"><line x1="1795" y1="270.7999969482422" x2="1795" y2="682.3999969482422" stroke-width="2" stroke="black" marker-end="url(#arrowhead)" stroke-dasharray="5,5"></line></g><g class="eventWrapper" transform="translate(1700, 402.9999969482422)"><g class="timeline-node section-1"><g><path id="node-undefined" class="node-bkg node-undefined" d="M0 130.79999237060548 v-125.79999237060548 q0,-5 5,-5 h180 q5,0 5,5 v130.79999237060548 H0 Z"></path><line class="node-line-1" x1="0" y1="135.79999237060548" x2="190" y2="135.79999237060548"></line></g><g transform="translate(95, 10)"><text dy="1em" alignment-baseline="middle" dominant-baseline="middle" text-anchor="middle"><tspan x="0" dy="1em">Discovery   of   novel</tspan><tspan x="0" dy="1.1em">blood   and</tspan><tspan x="0" dy="1.1em">cerebrospinal   fluid</tspan><tspan x="0" dy="1.1em">protein   biomarkers</tspan><tspan x="0" dy="1.1em">in   Alzheimer</tspan><tspan x="0" dy="1.1em">%%cScale2%%</tspan></text></g></g></g><g class="taskWrapper" transform="translate(1900, 202.9999969482422)"><g class="timeline-node section-1"><g><path id="node-undefined" class="node-bkg node-undefined" d="M0 62.8 v-57.8 q0,-5 5,-5 h180 q5,0 5,5 v62.8 H0 Z"></path><line class="node-line-1" x1="0" y1="67.8" x2="190" y2="67.8"></line></g><g transform="translate(95, 10)"><text dy="1em" alignment-baseline="middle" dominant-baseline="middle" text-anchor="middle"><tspan x="0" dy="1em">2019</tspan></text></g></g></g><g class="lineWrapper"><line x1="1995" y1="270.7999969482422" x2="1995" y2="682.3999969482422" stroke-width="2" stroke="black" marker-end="url(#arrowhead)" stroke-dasharray="5,5"></line></g><g class="eventWrapper" transform="translate(1900, 402.9999969482422)"><g class="timeline-node section-1"><g><path id="node-undefined" class="node-bkg node-undefined" d="M0 130.79999237060548 v-125.79999237060548 q0,-5 5,-5 h180 q5,0 5,5 v130.79999237060548 H0 Z"></path><line class="node-line-1" x1="0" y1="135.79999237060548" x2="190" y2="135.79999237060548"></line></g><g transform="translate(95, 10)"><text dy="1em" alignment-baseline="middle" dominant-baseline="middle" text-anchor="middle"><tspan x="0" dy="1em">Gut   microbiota</tspan><tspan x="0" dy="1.1em">changes   and</tspan><tspan x="0" dy="1.1em">microbial   gene</tspan><tspan x="0" dy="1.1em">markers   identified</tspan><tspan x="0" dy="1.1em">in   Parkinson</tspan><tspan x="0" dy="1.1em">%%cScale2%%</tspan></text></g></g></g><g class="taskWrapper" transform="translate(2100, 202.9999969482422)"><g class="timeline-node section-1"><g><path id="node-undefined" class="node-bkg node-undefined" d="M0 62.8 v-57.8 q0,-5 5,-5 h180 q5,0 5,5 v62.8 H0 Z"></path><line class="node-line-1" x1="0" y1="67.8" x2="190" y2="67.8"></line></g><g transform="translate(95, 10)"><text dy="1em" alignment-baseline="middle" dominant-baseline="middle" text-anchor="middle"><tspan x="0" dy="1em">2020</tspan></text></g></g></g><g class="lineWrapper"><line x1="2195" y1="270.7999969482422" x2="2195" y2="682.3999969482422" stroke-width="2" stroke="black" marker-end="url(#arrowhead)" stroke-dasharray="5,5"></line></g><g class="eventWrapper" transform="translate(2100, 402.9999969482422)"><g class="timeline-node section-1"><g><path id="node-undefined" class="node-bkg node-undefined" d="M0 165.9999969482422 v-160.9999969482422 q0,-5 5,-5 h180 q5,0 5,5 v165.9999969482422 H0 Z"></path><line class="node-line-1" x1="0" y1="170.9999969482422" x2="190" y2="170.9999969482422"></line></g><g transform="translate(95, 10)"><text dy="1em" alignment-baseline="middle" dominant-baseline="middle" text-anchor="middle"><tspan x="0" dy="1em">Integrated   omics</tspan><tspan x="0" dy="1.1em">reveal   altered</tspan><tspan x="0" dy="1.1em">central   nervous</tspan><tspan x="0" dy="1.1em">system   pathways</tspan><tspan x="0" dy="1.1em">and   microbial</tspan><tspan x="0" dy="1.1em">metabolites   as</tspan><tspan x="0" dy="1.1em">therapeutic   targets</tspan><tspan x="0" dy="1.1em">%%cScale2%%</tspan></text></g></g></g><g class="taskWrapper" transform="translate(2300, 202.9999969482422)"><g class="timeline-node section-1"><g><path id="node-undefined" class="node-bkg node-undefined" d="M0 62.8 v-57.8 q0,-5 5,-5 h180 q5,0 5,5 v62.8 H0 Z"></path><line class="node-line-1" x1="0" y1="67.8" x2="190" y2="67.8"></line></g><g transform="translate(95, 10)"><text dy="1em" alignment-baseline="middle" dominant-baseline="middle" text-anchor="middle"><tspan x="0" dy="1em">2021</tspan></text></g></g></g><g class="lineWrapper"><line x1="2395" y1="270.7999969482422" x2="2395" y2="682.3999969482422" stroke-width="2" stroke="black" marker-end="url(#arrowhead)" stroke-dasharray="5,5"></line></g><g class="eventWrapper" transform="translate(2300, 402.9999969482422)"><g class="timeline-node section-1"><g><path id="node-undefined" class="node-bkg node-undefined" d="M0 95.59999542236328 v-90.59999542236328 q0,-5 5,-5 h180 q5,0 5,5 v95.59999542236328 H0 Z"></path><line class="node-line-1" x1="0" y1="100.59999542236328" x2="190" y2="100.59999542236328"></line></g><g transform="translate(95, 10)"><text dy="1em" alignment-baseline="middle" dominant-baseline="middle" text-anchor="middle"><tspan x="0" dy="1em">Microbial   therapies</tspan><tspan x="0" dy="1.1em">show   promise   in</tspan><tspan x="0" dy="1.1em">preclinical   Parkinson</tspan><tspan x="0" dy="1.1em">studies    %%cScale2%%</tspan></text></g></g></g><g transform="translate(2500, 50)"><g class="timeline-node section-2"><g><path id="node-undefined" class="node-bkg node-undefined" d="M0 97.99999694824218 v-92.99999694824218 q0,-5 5,-5 h980 q5,0 5,5 v97.99999694824218 H0 Z"></path><line class="node-line-2" x1="0" y1="102.99999694824218" x2="990" y2="102.99999694824218"></line></g><g transform="translate(495, 10)"><text dy="1em" alignment-baseline="middle" dominant-baseline="middle" text-anchor="middle"><tspan x="0" dy="1em">Clinical   Implications   and   Future   Directions</tspan></text></g></g></g><g class="taskWrapper" transform="translate(2500, 202.9999969482422)"><g class="timeline-node section-2"><g><path id="node-undefined" class="node-bkg node-undefined" d="M0 62.8 v-57.8 q0,-5 5,-5 h180 q5,0 5,5 v62.8 H0 Z"></path><line class="node-line-2" x1="0" y1="67.8" x2="190" y2="67.8"></line></g><g transform="translate(95, 10)"><text dy="1em" alignment-baseline="middle" dominant-baseline="middle" text-anchor="middle"><tspan x="0" dy="1em">2022</tspan></text></g></g></g><g class="lineWrapper"><line x1="2595" y1="270.7999969482422" x2="2595" y2="682.3999969482422" stroke-width="2" stroke="black" marker-end="url(#arrowhead)" stroke-dasharray="5,5"></line></g><g class="eventWrapper" transform="translate(2500, 402.9999969482422)"><g class="timeline-node section-2"><g><path id="node-undefined" class="node-bkg node-undefined" d="M0 113.19999389648437 v-108.19999389648437 q0,-5 5,-5 h180 q5,0 5,5 v113.19999389648437 H0 Z"></path><line class="node-line-2" x1="0" y1="118.19999389648437" x2="190" y2="118.19999389648437"></line></g><g transform="translate(95, 10)"><text dy="1em" alignment-baseline="middle" dominant-baseline="middle" text-anchor="middle"><tspan x="0" dy="1em">Early   diagnosis   using</tspan><tspan x="0" dy="1.1em">microbial   and</tspan><tspan x="0" dy="1.1em">molecular</tspan><tspan x="0" dy="1.1em">biomarkers</tspan><tspan x="0" dy="1.1em">%%cScale3%%</tspan></text></g></g></g><g class="taskWrapper" transform="translate(2700, 202.9999969482422)"><g class="timeline-node section-2"><g><path id="node-undefined" class="node-bkg node-undefined" d="M0 62.8 v-57.8 q0,-5 5,-5 h180 q5,0 5,5 v62.8 H0 Z"></path><line class="node-line-2" x1="0" y1="67.8" x2="190" y2="67.8"></line></g><g transform="translate(95, 10)"><text dy="1em" alignment-baseline="middle" dominant-baseline="middle" text-anchor="middle"><tspan x="0" dy="1em">2023</tspan></text></g></g></g><g class="lineWrapper"><line x1="2795" y1="270.7999969482422" x2="2795" y2="682.3999969482422" stroke-width="2" stroke="black" marker-end="url(#arrowhead)" stroke-dasharray="5,5"></line></g><g class="eventWrapper" transform="translate(2700, 402.9999969482422)"><g class="timeline-node section-2"><g><path id="node-undefined" class="node-bkg node-undefined" d="M0 113.19999389648437 v-108.19999389648437 q0,-5 5,-5 h180 q5,0 5,5 v113.19999389648437 H0 Z"></path><line class="node-line-2" x1="0" y1="118.19999389648437" x2="190" y2="118.19999389648437"></line></g><g transform="translate(95, 10)"><text dy="1em" alignment-baseline="middle" dominant-baseline="middle" text-anchor="middle"><tspan x="0" dy="1em">Personalized</tspan><tspan x="0" dy="1.1em">treatments   targeting</tspan><tspan x="0" dy="1.1em">gut   microbial</tspan><tspan x="0" dy="1.1em">alterations</tspan><tspan x="0" dy="1.1em">%%cScale3%%</tspan></text></g></g></g><g class="taskWrapper" transform="translate(2900, 202.9999969482422)"><g class="timeline-node section-2"><g><path id="node-undefined" class="node-bkg node-undefined" d="M0 62.8 v-57.8 q0,-5 5,-5 h180 q5,0 5,5 v62.8 H0 Z"></path><line class="node-line-2" x1="0" y1="67.8" x2="190" y2="67.8"></line></g><g transform="translate(95, 10)"><text dy="1em" alignment-baseline="middle" dominant-baseline="middle" text-anchor="middle"><tspan x="0" dy="1em">2023</tspan></text></g></g></g><g class="lineWrapper"><line x1="2995" y1="270.7999969482422" x2="2995" y2="682.3999969482422" stroke-width="2" stroke="black" marker-end="url(#arrowhead)" stroke-dasharray="5,5"></line></g><g class="eventWrapper" transform="translate(2900, 402.9999969482422)"><g class="timeline-node section-2"><g><path id="node-undefined" class="node-bkg node-undefined" d="M0 148.39999084472657 v-143.39999084472657 q0,-5 5,-5 h180 q5,0 5,5 v148.39999084472657 H0 Z"></path><line class="node-line-2" x1="0" y1="153.39999084472657" x2="190" y2="153.39999084472657"></line></g><g transform="translate(95, 10)"><text dy="1em" alignment-baseline="middle" dominant-baseline="middle" text-anchor="middle"><tspan x="0" dy="1em">Development   of</tspan><tspan x="0" dy="1.1em">novel</tspan><tspan x="0" dy="1.1em">pharmacological</tspan><tspan x="0" dy="1.1em">agents   based   on</tspan><tspan x="0" dy="1.1em">multi   omics</tspan><tspan x="0" dy="1.1em">pathways</tspan><tspan x="0" dy="1.1em">%%cScale3%%</tspan></text></g></g></g><g class="taskWrapper" transform="translate(3100, 202.9999969482422)"><g class="timeline-node section-2"><g><path id="node-undefined" class="node-bkg node-undefined" d="M0 62.8 v-57.8 q0,-5 5,-5 h180 q5,0 5,5 v62.8 H0 Z"></path><line class="node-line-2" x1="0" y1="67.8" x2="190" y2="67.8"></line></g><g transform="translate(95, 10)"><text dy="1em" alignment-baseline="middle" dominant-baseline="middle" text-anchor="middle"><tspan x="0" dy="1em">2024</tspan></text></g></g></g><g class="lineWrapper"><line x1="3195" y1="270.7999969482422" x2="3195" y2="682.3999969482422" stroke-width="2" stroke="black" marker-end="url(#arrowhead)" stroke-dasharray="5,5"></line></g><g class="eventWrapper" transform="translate(3100, 402.9999969482422)"><g class="timeline-node section-2"><g><path id="node-undefined" class="node-bkg node-undefined" d="M0 130.79999237060548 v-125.79999237060548 q0,-5 5,-5 h180 q5,0 5,5 v130.79999237060548 H0 Z"></path><line class="node-line-2" x1="0" y1="135.79999237060548" x2="190" y2="135.79999237060548"></line></g><g transform="translate(95, 10)"><text dy="1em" alignment-baseline="middle" dominant-baseline="middle" text-anchor="middle"><tspan x="0" dy="1em">Expansion   of</tspan><tspan x="0" dy="1.1em">datasets   and</tspan><tspan x="0" dy="1.1em">standardization   of</tspan><tspan x="0" dy="1.1em">methodologies   for</tspan><tspan x="0" dy="1.1em">diverse   populations</tspan><tspan x="0" dy="1.1em">%%cScale3%%</tspan></text></g></g></g><g class="taskWrapper" transform="translate(3300, 202.9999969482422)"><g class="timeline-node section-2"><g><path id="node-undefined" class="node-bkg node-undefined" d="M0 62.8 v-57.8 q0,-5 5,-5 h180 q5,0 5,5 v62.8 H0 Z"></path><line class="node-line-2" x1="0" y1="67.8" x2="190" y2="67.8"></line></g><g transform="translate(95, 10)"><text dy="1em" alignment-baseline="middle" dominant-baseline="middle" text-anchor="middle"><tspan x="0" dy="1em">2024</tspan></text></g></g></g><g class="lineWrapper"><line x1="3395" y1="270.7999969482422" x2="3395" y2="682.3999969482422" stroke-width="2" stroke="black" marker-end="url(#arrowhead)" stroke-dasharray="5,5"></line></g><g class="eventWrapper" transform="translate(3300, 402.9999969482422)"><g class="timeline-node section-2"><g><path id="node-undefined" class="node-bkg node-undefined" d="M0 148.39999084472657 v-143.39999084472657 q0,-5 5,-5 h180 q5,0 5,5 v148.39999084472657 H0 Z"></path><line class="node-line-2" x1="0" y1="153.39999084472657" x2="190" y2="153.39999084472657"></line></g><g transform="translate(95, 10)"><text dy="1em" alignment-baseline="middle" dominant-baseline="middle" text-anchor="middle"><tspan x="0" dy="1em">Integration   of</tspan><tspan x="0" dy="1.1em">bioinformatics   and</tspan><tspan x="0" dy="1.1em">experimental</tspan><tspan x="0" dy="1.1em">validation   for</tspan><tspan x="0" dy="1.1em">therapeutic</tspan><tspan x="0" dy="1.1em">translation</tspan><tspan x="0" dy="1.1em">%%cScale3%%</tspan></text></g></g></g><text x="1645" font-size="4ex" font-weight="bold" y="20">Multi Omics in Neurodegenerative Disease and Gut Brain Axis</text><g class="lineWrapper"><line x1="50" y1="320.7999969482422" x2="3540" y2="320.7999969482422" stroke-width="4" stroke="black" marker-end="url(#arrowhead)"></line></g></svg>